<svg xmlns="http://www.w3.org/2000/svg" width="168" height="99" viewBox="0 0 168 99">
  <path fill="#050505" fill-rule="evenodd" d="M166.234076,45.4927718 L163.371415,49.6853709 L160.525036,45.5179348 L160.508754,45.4927718 L159.481512,45.4927718 L162.941424,50.5031683 L162.941424,54.2243313 L163.801406,54.2243313 L163.801406,50.5031683 L167.199151,45.5830626 L167.262058,45.4927718 L166.234076,45.4927718 Z M160.329653,53.4376176 L156.177019,53.4376176 L156.177019,45.4927718 L155.317036,45.4927718 L155.317036,54.2243313 L160.329653,54.2243313 L160.329653,53.4376176 Z M152.372226,54.2243313 L153.220367,54.2243313 L153.220367,45.4927718 L152.372226,45.4927718 L152.372226,54.2243313 Z M142.804367,46.7731242 L145.831327,54.188067 L145.846129,54.2243313 L146.205811,54.2243313 L149.234992,46.7738643 L149.234992,54.2243313 L150.094234,54.2243313 L150.094234,45.4927718 L148.893071,45.4927718 L146.02597,52.567274 L143.160349,45.5290361 L143.146287,45.4927718 L141.956966,45.4927718 L141.956966,54.2243313 L142.804367,54.2243313 L142.804367,46.7731242 Z M134.590129,51.3187454 L136.53656,46.4918907 L138.470411,51.3187454 L134.590129,51.3187454 Z M137.04056,45.5290361 L137.025759,45.4927718 L136.034781,45.4927718 L132.511221,54.1451419 L132.478657,54.2243313 L133.450393,54.2243313 L134.299274,52.1061991 L138.761265,52.1061991 L139.595344,54.188067 L139.609406,54.2243313 L140.582622,54.2243313 L137.04056,45.5290361 Z M127.426076,46.2787454 L132.132296,46.2787454 L132.132296,45.4927718 L126.578675,45.4927718 L126.578675,54.2243313 L127.426076,54.2243313 L127.426076,50.1420053 L132.042005,50.1420053 L132.042005,49.3552916 L127.426076,49.3552916 L127.426076,46.2787454 Z M86.4836617,59.2687718 L86.4836617,58.4665163 L81.3193269,58.4665163 L81.3193269,67.0693004 L82.1904106,67.0693004 L82.1904106,62.9988159 L86.1817057,62.9988159 L86.1817057,62.1965604 L82.1904106,62.1965604 L82.1904106,59.2687718 L86.4836617,59.2687718 Z M147.110939,66.486111 C144.909917,66.486111 143.59108,64.7491242 143.59108,62.7679084 C143.59108,60.7874326 144.909917,59.0497057 147.110939,59.0497057 C149.311961,59.0497057 150.630058,60.7874326 150.630058,62.7679084 C150.630058,64.7491242 149.311961,66.486111 147.110939,66.486111 L147.110939,66.486111 Z M147.110939,58.2481903 C144.559115,58.2481903 142.648208,60.1553974 142.648208,62.7679084 C142.648208,65.3811595 144.559115,67.2883665 147.110939,67.2883665 C149.662023,67.2883665 151.57293,65.3811595 151.57293,62.7679084 C151.57293,60.1553974 149.662023,58.2481903 147.110939,58.2481903 L147.110939,58.2481903 Z M118.278587,66.267785 L116.586005,66.267785 L116.586005,59.2687718 L118.278587,59.2687718 C120.891098,59.2687718 122.112983,60.9939172 122.112983,62.7679084 C122.112983,64.5418996 120.891098,66.267785 118.278587,66.267785 L118.278587,66.267785 Z M123.055856,62.7679084 C123.055856,59.900807 120.697935,58.4665163 118.55686,58.4665163 L115.714922,58.4665163 L115.714922,67.0693004 L118.55686,67.0693004 C120.697935,67.0693004 123.055856,65.6357498 123.055856,62.7679084 L123.055856,62.7679084 Z M140.036437,67.0693004 L140.906781,67.0693004 L140.906781,58.4665163 L140.036437,58.4665163 L140.036437,67.0693004 Z M125.922217,64.0075559 L127.785019,59.4870978 L129.635239,64.0075559 L125.922217,64.0075559 Z M127.361688,58.4665163 L123.636085,67.0693004 L124.652226,67.0693004 L125.595838,64.8090714 L129.973459,64.8090714 L130.917071,67.0693004 L131.932472,67.0693004 L128.207609,58.4665163 L127.361688,58.4665163 Z M134.969054,67.0693004 L135.840137,67.0693004 L135.840137,59.2687718 L138.705759,59.2687718 L138.705759,58.4665163 L132.102693,58.4665163 L132.102693,59.2687718 L134.969054,59.2687718 L134.969054,67.0693004 Z M112.643556,65.7571242 L112.619133,65.7571242 L107.514745,58.4665163 L106.426076,58.4665163 L106.426076,67.0693004 L107.297159,67.0693004 L107.297159,59.7061639 L107.321582,59.7061639 L112.42523,67.0693004 L113.5139,67.0693004 L113.5139,58.4665163 L112.643556,58.4665163 L112.643556,65.7571242 Z M159.531098,65.7571242 L159.507415,65.7571242 L154.403767,58.4665163 L153.315098,58.4665163 L153.315098,67.0693004 L154.186181,67.0693004 L154.186181,59.7061639 L154.209864,59.7061639 L159.313512,67.0693004 L160.402181,67.0693004 L160.402181,58.4665163 L159.531098,58.4665163 L159.531098,65.7571242 Z M91.9262696,59.0497057 C94.1265515,59.0497057 95.4453885,60.7874326 95.4453885,62.7679084 C95.4453885,64.7491242 94.1265515,66.486111 91.9262696,66.486111 C89.7245075,66.486111 88.4064106,64.7491242 88.4064106,62.7679084 C88.4064106,60.7874326 89.7245075,59.0497057 91.9262696,59.0497057 L91.9262696,59.0497057 Z M91.9262696,67.2883665 C94.4780934,67.2883665 96.3882608,65.3811595 96.3882608,62.7679084 C96.3882608,60.1553974 94.4780934,58.2481903 91.9262696,58.2481903 C89.3737057,58.2481903 87.4627982,60.1553974 87.4627982,62.7679084 C87.4627982,65.3811595 89.3737057,67.2883665 91.9262696,67.2883665 L91.9262696,67.2883665 Z M101.117424,66.486111 C100.464666,66.486111 98.8557145,66.2433621 98.8557145,63.764067 L98.8557145,58.4665163 L97.9853709,58.4665163 L97.9853709,63.8617586 C97.9853709,65.2953093 98.5537586,67.2883665 101.117424,67.2883665 C103.681089,67.2883665 104.250217,65.2953093 104.250217,63.8617586 L104.250217,58.4665163 L103.379133,58.4665163 L103.379133,63.764067 C103.379133,66.2433621 101.770181,66.486111 101.117424,66.486111 L101.117424,66.486111 Z M105.87471,46.6968952 L105.899873,46.6968952 L108.995662,54.1333004 L109.455256,54.1333004 L112.551045,46.6968952 L112.575468,46.6968952 L112.575468,54.1333004 L113.446552,54.1333004 L113.446552,45.5297762 L112.115873,45.5297762 L109.225089,52.5295295 L106.334305,45.5297762 L105.005107,45.5297762 L105.005107,54.1333004 L105.87471,54.1333004 L105.87471,46.6968952 Z M81.6027806,46.3320317 L84.4698819,46.3320317 L84.4698819,54.1333004 L85.3394855,54.1333004 L85.3394855,46.3320317 L88.2058467,46.3320317 L88.2058467,45.5297762 L81.6027806,45.5297762 L81.6027806,46.3320317 Z M116.638552,46.3320317 L118.041759,46.3320317 C119.601864,46.3320317 120.133988,47.0010714 120.133988,47.8270097 C120.133988,48.6536881 119.601864,49.333089 118.041759,49.333089 L116.638552,49.333089 L116.638552,46.3320317 Z M116.638552,50.1353445 L118.259344,50.1353445 C120.000772,50.1353445 121.0776,49.3700934 121.0776,47.8270097 C121.0776,46.283926 120.000772,45.5297762 118.259344,45.5297762 L115.768948,45.5297762 L115.768948,54.1333004 L116.638552,54.1333004 L116.638552,50.1353445 Z M90.4076088,46.3320317 L91.955133,46.3320317 C93.5152388,46.3320317 94.0473621,47.0010714 94.0473621,47.8270097 C94.0473621,48.6536881 93.5152388,49.333089 91.955133,49.333089 L90.4076088,49.333089 L90.4076088,46.3320317 Z M90.4076088,50.1353445 L91.8589216,50.1353445 L94.2050009,54.1333004 L95.2685075,54.1333004 L92.8017938,50.0502344 C94.2050009,49.9288599 94.9909744,49.0178115 94.9909744,47.8270097 C94.9909744,46.283926 93.9141463,45.5297762 92.173459,45.5297762 L89.535785,45.5297762 L89.535785,54.1333004 L90.4076088,54.1333004 L90.4076088,50.1353445 Z M99.6957145,54.3516264 C102.25938,54.3516264 102.827767,52.3593093 102.827767,50.9250185 L102.827767,45.5297762 L101.956684,45.5297762 L101.956684,50.828067 C101.956684,53.306622 100.348472,53.550111 99.6957145,53.550111 C99.0422167,53.550111 97.4340053,53.306622 97.4340053,50.828067 L97.4340053,45.5297762 L96.5629216,45.5297762 L96.5629216,50.9250185 C96.5629216,52.3593093 97.1313093,54.3516264 99.6957145,54.3516264 L99.6957145,54.3516264 Z M99.4063401,76.0850537 C100.221917,75.5677322 100.636367,74.6988687 100.779204,73.6634855 C100.865054,73.0617938 100.936842,72.4608423 101.022693,71.8598907 L100.064278,71.8598907 C99.9784282,72.5111683 99.892578,73.1787278 99.8067278,73.8307454 C99.6927542,74.5989568 99.4218819,75.2835383 98.792067,75.6180581 C98.6921551,75.6676441 98.5493181,75.71797 98.4346044,75.734252 L95.7895295,71.8598907 L94.61797,71.8598907 L96.8907806,75.0829744 C96.7050185,75.1170185 96.5044546,75.2339524 96.3468159,75.3338643 C95.4757322,75.8844899 95.0753445,76.8865692 94.9754326,78.0063225 C94.8895824,78.8744458 94.8177938,79.7595912 94.7460053,80.6284546 L95.7036793,80.6284546 C95.7754678,79.7595912 95.8472564,78.9077498 95.9331066,78.0388863 C96.0041551,77.204067 96.2328423,76.1857057 96.918904,75.768296 C97.0195559,75.700948 97.1905163,75.6343401 97.3200317,75.6343401 C97.7766661,76.3189216 98.1770537,77.0538291 98.5922432,77.7887366 C99.1066044,78.7234678 99.606904,79.6759612 100.107204,80.6284546 L101.193653,80.6284546 L98.8068687,76.3352035 C99.0066925,76.3026396 99.2353797,76.1857057 99.4063401,76.0850537 L99.4063401,76.0850537 Z M104.738675,71.8598907 L102.323027,71.8598907 L102.323027,72.7620581 L104.753477,72.7620581 C105.882851,72.7620581 106.511926,73.4799436 106.511926,74.7995207 L106.511926,80.6284546 L107.4696,80.6284546 L107.4696,75.0333885 C107.4696,72.995926 106.497124,71.8598907 104.738675,71.8598907 L104.738675,71.8598907 Z M89.9576352,71.8598907 L85.8116617,71.8598907 L85.8116617,72.7783401 L87.3406837,72.7783401 L86.1683841,80.6284546 L87.1127366,80.6284546 L88.2850361,72.7783401 L89.9716969,72.7783401 C91.1010714,72.7783401 91.7301463,73.4799436 91.7301463,74.7995207 L91.7301463,79.7262872 L89.4284722,79.7262872 L89.4284722,80.6284546 L92.6878203,80.6284546 L92.6878203,75.0333885 C92.6878203,72.995926 91.7012828,71.8598907 89.9576352,71.8598907 L89.9576352,71.8598907 Z M113.60271,71.6933709 C113.316296,71.6933709 112.487397,71.7259348 112.243908,71.9605427 L112.243908,72.8286661 C112.515521,72.5777762 113.230446,72.5274502 113.545723,72.5274502 C114.760208,72.5274502 115.289371,73.9306573 115.289371,75.1495824 C115.289371,77.4712388 114.288772,79.7262872 112.072208,79.7262872 L111.08567,79.7262872 L110.457336,71.8598907 L109.499662,71.8598907 L110.199785,80.6284546 L112.229847,80.6284546 C114.817195,80.6284546 116.232243,77.9219524 116.232243,75.1495824 C116.232243,73.2964018 115.303433,71.6933709 113.60271,71.6933709 L113.60271,71.6933709 Z M132.186322,72.7783401 L138.004155,72.7783401 L135.374622,80.5278026 L136.374481,80.5278026 L139.277107,71.8598907 L132.186322,71.8598907 L132.186322,72.7783401 Z M127.153723,71.8598907 L124.738816,71.8598907 L124.738816,72.7620581 L127.168525,72.7620581 C128.2979,72.7620581 128.926974,73.4799436 128.926974,74.7995207 L128.926974,80.6284546 L129.885389,80.6284546 L129.885389,75.0333885 C129.885389,72.995926 128.912913,71.8598907 127.153723,71.8598907 L127.153723,71.8598907 Z M81.0506749,71.8598907 L78.0207542,71.8598907 L78.0207542,76.3692476 L78.9784282,76.3692476 L78.9784282,72.7620581 L81.0795383,72.7620581 C82.2089128,72.7620581 82.823926,73.4799436 82.823926,74.7995207 L82.823926,79.7262872 L78.0207542,79.7262872 L78.0207542,80.6284546 L83.7816,80.6284546 L83.7816,75.0333885 C83.7816,72.995926 82.7950626,71.8598907 81.0506749,71.8598907 L81.0506749,71.8598907 Z M120.90738,72.7783401 L122.193653,72.7783401 L122.193653,83.3001727 L123.151327,83.3001727 L123.151327,71.8598907 L120.90738,71.8598907 L120.90738,72.7783401 Z M132.400948,83.3001727 L133.358622,83.3001727 L133.358622,75.1999084 L132.400948,75.1999084 L132.400948,83.3001727 Z M80.908578,12.6957674 C81.1091419,12.8282432 81.3178467,12.927415 81.5317322,12.9918026 C81.7456176,13.0598907 81.9558026,13.0865339 82.1622872,13.0687718 C82.3687718,13.0510097 82.563415,12.9903225 82.7491771,12.8778291 C82.9341991,12.7697762 83.0970185,12.6076969 83.2368952,12.3893709 C83.3856529,12.1643841 83.4581815,11.9504987 83.4589216,11.7595559 C83.4589216,11.5656529 83.4196969,11.3865515 83.3382872,11.2170714 C83.2568775,11.0483313 83.1532652,10.8936529 83.0289304,10.7471154 C82.9031154,10.6027982 82.7884018,10.4658819 82.6833093,10.3334062 C82.5796969,10.2046308 82.5027278,10.0788159 82.4553621,9.95744141 C82.4079965,9.83828722 82.4227982,9.71913304 82.4982872,9.60145903 C82.546393,9.52745022 82.6048599,9.47786432 82.6759084,9.45122115 C82.7447366,9.42161762 82.8187454,9.41273656 82.8979348,9.41939736 C82.9763841,9.42679824 83.0533533,9.44456035 83.1288423,9.47120352 C83.2043313,9.50080705 83.2724194,9.5348511 83.3353269,9.57481586 C83.4411595,9.64438414 83.5403313,9.73911542 83.6321022,9.86048987 C83.722393,9.97964405 83.7749392,10.1061991 83.7875207,10.2408952 L84.7918203,9.97964405 C84.722252,9.72579383 84.6053181,9.49858678 84.4410185,9.30246344 C84.2767189,9.10708018 84.0850361,8.93611982 83.86597,8.794763 C83.6750273,8.66820793 83.4737233,8.576437 83.2598379,8.51056916 C83.0466925,8.44766167 82.8365075,8.42323877 82.630763,8.43878062 C82.4235383,8.45728282 82.2288952,8.51797004 82.0438731,8.62084229 C81.8588511,8.72667489 81.6989921,8.88431366 81.5635559,9.09375859 C81.4229392,9.30690396 81.3548511,9.51190837 81.3592916,9.70359119 C81.362252,9.89453392 81.4059172,10.0743753 81.4895471,10.2453357 C81.572437,10.4140758 81.6767894,10.5739348 81.8033445,10.7219524 C81.9298996,10.8729304 82.0453533,11.0194678 82.1497057,11.1519436 C82.2533181,11.2896 82.328807,11.4220758 82.3732123,11.5478907 C82.4198379,11.6737057 82.4035559,11.7950802 82.328807,11.9142344 C82.2829216,11.9845427 82.2266749,12.0341286 82.1578467,12.0607718 C82.0904987,12.0903753 82.01723,12.1036969 81.9395207,12.0992564 C81.8603313,12.0948159 81.7811419,12.0763137 81.6989921,12.0474502 C81.6168423,12.0185868 81.5413533,11.9801022 81.4725251,11.9349568 C81.328948,11.8424458 81.2120141,11.7188511 81.1195031,11.5686132 C81.0284722,11.415415 80.9774062,11.2533357 80.9655648,11.0779348 L79.9198203,11.3525075 C79.9960493,11.6470626 80.1152035,11.9009128 80.2809833,12.1192388 C80.4475031,12.339785 80.6554678,12.5307278 80.908578,12.6957674 L80.908578,12.6957674 Z M76.4717498,8.91095683 L74.4261463,7.98214626 L74.8146925,7.11772335 L76.6449304,7.95032247 L77.0342167,7.08885991 L75.2032388,6.25626079 L75.5584811,5.46658678 L77.4967718,6.34655154 L77.8860581,5.4843489 L75.0174767,4.18031366 L73.1080493,8.4210185 L76.0824634,9.77537974 L76.4717498,8.91095683 Z M69.3868863,6.04533568 L67.5662696,5.53171454 L68.5639084,1.96152952 L67.5818115,1.6825163 L66.3288423,6.16448987 L69.1330361,6.95638414 L69.3868863,6.04533568 Z M58.5512564,4.40234009 C58.6926132,4.59180264 58.8798555,4.74944141 59.1122432,4.87303612 C59.3424106,4.99663084 59.6184634,5.07804053 59.9396617,5.11578502 C60.2564194,5.1542696 60.5406132,5.13872775 60.7959436,5.07063965 C61.0490537,5.00329163 61.2673797,4.89523877 61.4494414,4.74426079 C61.6315031,4.59402291 61.7773004,4.4075207 61.8860934,4.18623436 C61.9956264,3.96642819 62.0659348,3.71849868 62.0977586,3.44466608 L62.428578,0.602727753 L61.4146573,0.483573568 L61.0890185,3.28480705 C61.0719965,3.42838414 61.0335119,3.55863965 60.9735648,3.67631366 C60.9143577,3.79324758 60.8381286,3.89019912 60.7456176,3.97086872 C60.6531066,4.04931806 60.547274,4.10778502 60.4281198,4.14404934 C60.3097057,4.18253392 60.1831507,4.19141498 60.0484546,4.17513304 C59.9152388,4.15959119 59.7938643,4.1218467 59.6850714,4.05597885 C59.5755383,3.99307137 59.4852476,3.91240176 59.4127189,3.81322996 C59.3409304,3.71405815 59.2898643,3.60156476 59.2587806,3.47352952 C59.2269568,3.34771454 59.2188159,3.2130185 59.236578,3.06870132 L59.5614767,0.265247577 L58.548296,0.148313656 L58.2182167,2.98729163 C58.186393,3.26186432 58.1967542,3.52089515 58.2530009,3.75920352 C58.3085075,3.99973216 58.4084194,4.21583789 58.5512564,4.40234009 L58.5512564,4.40234009 Z M52.0584634,4.82789075 C52.3715207,4.81678943 52.6238907,4.76054273 52.8140934,4.6569304 C53.0050361,4.55553833 53.1486132,4.42528282 53.247785,4.26542379 C53.3462167,4.10556476 53.4106044,3.92572335 53.4402079,3.72145903 C53.4690714,3.51867489 53.4786925,3.31145022 53.4712916,3.09534449 L53.3513974,0.000296035242 L52.3315559,0.040260793 L52.4470097,3.02355595 C52.44997,3.11162643 52.4507101,3.20783789 52.4477498,3.30922996 C52.4455295,3.41284229 52.4299877,3.50979383 52.4026044,3.59712423 C52.3759612,3.68741498 52.3315559,3.76142379 52.2679084,3.82433128 C52.2050009,3.8850185 52.11397,3.91906256 51.9970361,3.92350308 C51.8830626,3.92794361 51.7809304,3.89241938 51.6891595,3.81767048 C51.5951683,3.74144141 51.5404018,3.64671013 51.5233797,3.53421674 L50.5967894,3.79990837 C50.6856,4.16921233 50.8595207,4.43638414 51.1185515,4.60290396 C51.3790626,4.76720352 51.6913797,4.8434326 52.0584634,4.82789075 L52.0584634,4.82789075 Z M39.5709568,2.83927401 C39.6338643,2.7401022 39.7263753,2.67275419 39.8484899,2.6409304 C39.9713445,2.60762643 40.0853181,2.61428722 40.1896705,2.6594326 C40.294763,2.70605815 40.3650714,2.79412863 40.4013357,2.92660441 C40.4176176,2.98951189 40.4176176,3.05537974 40.3983753,3.12050749 C40.3806132,3.18785551 40.3524899,3.250763 40.3154855,3.31367048 C40.277741,3.37435771 40.2348159,3.43504493 40.1867101,3.49203172 C40.1386044,3.54753833 40.0941991,3.59712423 40.0505339,3.64004934 C40.0039084,3.61710661 39.9521022,3.59046344 39.8965956,3.5616 C39.8418291,3.52977621 39.7885427,3.49573216 39.740437,3.4557674 C39.6915912,3.41728282 39.6464458,3.37435771 39.6079612,3.32921233 C39.5687366,3.28480705 39.5406132,3.23300088 39.5265515,3.17897445 C39.4917674,3.05019912 39.5073093,2.93770573 39.5709568,2.83927401 L39.5709568,2.83927401 Z M41.0881374,5.30006696 C41.0074678,5.42144141 40.9216176,5.52949427 40.832067,5.62200529 C40.7417762,5.71377621 40.6218819,5.78186432 40.4746044,5.8203489 C40.3998555,5.84255154 40.3214062,5.84921233 40.2399965,5.84033128 C40.1585868,5.83367048 40.084578,5.81294802 40.01797,5.78186432 C39.950622,5.75004053 39.8899348,5.70563524 39.8381286,5.64716828 C39.7870626,5.58870132 39.7493181,5.51617269 39.7263753,5.43106256 C39.7026925,5.3474326 39.698252,5.26898326 39.7100934,5.19645463 C39.723415,5.12540617 39.7470978,5.05953833 39.782622,4.99663084 C39.8174062,4.93594361 39.8595912,4.87747665 39.9106573,4.82122996 C39.9609833,4.762763 40.0120493,4.70873656 40.0645956,4.65248987 L41.0881374,5.30006696 Z M38.6828511,3.68519471 C38.7302167,3.76882467 38.7864634,3.84283348 38.8530714,3.91240176 C38.9181991,3.98197004 38.9922079,4.04265727 39.0728775,4.09890396 C39.152067,4.1529304 39.2393974,4.21139736 39.3326485,4.27208458 C39.2105339,4.35571454 39.1032211,4.45192599 39.0107101,4.55997885 C38.917459,4.67025198 38.84197,4.78940617 38.7849833,4.9181815 C38.7272564,5.048437 38.6909921,5.18313304 38.6769304,5.32522996 C38.6628687,5.46658678 38.6769304,5.61090396 38.7139348,5.75522115 C38.7761022,5.97724758 38.8730537,6.16448987 39.0070097,6.30806696 C39.1409656,6.45460441 39.2971242,6.56265727 39.4769656,6.63222555 C39.6575471,6.7040141 39.8484899,6.74249868 40.0527542,6.74693921 C40.2570185,6.74915947 40.4612828,6.72473656 40.6625868,6.67071013 C40.9282784,6.59596123 41.1554855,6.49012863 41.3456881,6.34655154 C41.5358907,6.20519471 41.69723,6.01351189 41.8311859,5.77298326 L42.3181639,6.09714185 L43.5378291,5.76632247 L42.2537762,4.97590837 L42.856948,3.46464846 L41.7579172,3.76142379 L41.4833445,4.47708899 L40.7425163,4.01749427 C40.8394678,3.92794361 40.9282784,3.83173216 41.0059877,3.72515947 C41.0829568,3.62006696 41.1466044,3.50757357 41.1961903,3.3876793 C41.244296,3.2692652 41.2761198,3.1449304 41.2894414,3.01689515 C41.302763,2.89330044 41.2924018,2.76008458 41.2553974,2.62538855 C41.2043313,2.43666608 41.1236617,2.28124758 41.0156088,2.16209339 C40.9068159,2.04441938 40.7802608,1.95708899 40.6359436,1.89862203 C40.4916264,1.84015507 40.3354678,1.81129163 40.1667278,1.80907137 C40.0002079,1.80389075 39.8292476,1.82683348 39.656807,1.87641938 C39.479926,1.92304493 39.3134062,1.99113304 39.1565075,2.07846344 C38.9988687,2.16875419 38.8678731,2.27680705 38.7627806,2.40484229 C38.6562079,2.53361762 38.5836793,2.67941498 38.5451947,2.8459348 C38.50523,3.01023436 38.514111,3.1945163 38.5681374,3.39730044 C38.597741,3.50757357 38.6362256,3.60378502 38.6828511,3.68519471 L38.6828511,3.68519471 Z M32.7828687,9.50080705 L32.3476969,8.66154714 L30.3576,9.70581145 L29.920948,8.86581145 L31.7023401,7.93256035 L31.2671683,7.09330044 L29.4857762,8.02655154 L29.0861286,7.2576 L30.971133,6.26958238 L30.5359612,5.42884229 L27.7458291,6.89347665 L29.8883841,11.0194678 L32.7828687,9.50080705 Z M26.0021815,13.4891419 L23.3223225,9.69174978 L22.4897233,10.2860405 L25.1695824,14.0812123 L26.0021815,13.4891419 Z M19.7743401,16.8913269 C19.7439965,17.0756088 19.6722079,17.2554502 19.5582344,17.4286308 C19.4435207,17.606252 19.3014238,17.7727718 19.1304634,17.9370714 L18.7463577,18.3041551 L16.8532123,16.3014767 L17.2898643,15.8855471 C17.4452828,15.7367894 17.6118026,15.615415 17.7901639,15.5206837 C17.967785,15.4266925 18.1476264,15.3697057 18.3259877,15.3497233 C18.5065692,15.329741 18.6841903,15.3497233 18.8625515,15.4148511 C19.0394326,15.4784987 19.2059524,15.5932123 19.3628511,15.7575119 C19.5434326,15.9484546 19.664067,16.1393974 19.7269744,16.3310802 C19.790622,16.5198026 19.8061639,16.7085251 19.7743401,16.8913269 L19.7743401,16.8913269 Z M20.1673269,15.0640493 C19.8757322,14.7561727 19.5745163,14.5422872 19.2644194,14.4275736 C18.9543225,14.3128599 18.6449656,14.2721551 18.337089,14.3106396 C18.0284722,14.346904 17.7257762,14.4527366 17.4267806,14.6214767 C17.1270449,14.792437 16.8443313,15.0055824 16.5749392,15.262393 L15.464067,16.321459 L18.6553269,19.6970009 L19.8653709,18.5424634 C20.1140405,18.3041551 20.3190449,18.0384634 20.4781639,17.7505692 C20.6365427,17.4604546 20.7349744,17.161459 20.7764194,16.8528423 C20.8163841,16.5449656 20.789741,16.2385692 20.6957498,15.9329128 C20.6017586,15.6272564 20.4248775,15.3364018 20.1673269,15.0640493 L20.1673269,15.0640493 Z M13.7574238,23.9532476 C13.6745339,24.1441903 13.5635207,24.3380934 13.4214238,24.5268159 L13.1068863,24.9545868 L10.9006837,23.3049304 L11.2603665,22.8216529 C11.3869216,22.6484722 11.5319789,22.4997145 11.6910978,22.3761198 C11.8509568,22.2525251 12.0174767,22.1666749 12.1899172,22.1148687 C12.364578,22.0630626 12.5436793,22.0541815 12.7294414,22.0882256 C12.9152035,22.1193093 13.0987454,22.2029392 13.280067,22.3398555 C13.490252,22.495274 13.6427101,22.6640141 13.7367013,22.839415 C13.8314326,23.0170361 13.8787982,23.1990978 13.8802882,23.3863401 C13.8810185,23.5728423 13.8395736,23.7593445 13.7574238,23.9532476 L13.7574238,23.9532476 Z M13.9542872,21.5168775 C13.6153269,21.2622872 13.2830273,21.1046485 12.9573885,21.0461815 C12.6324899,20.9854943 12.3216529,21.0010361 12.0241374,21.0891066 C11.726622,21.1771771 11.4453885,21.3318555 11.1789568,21.5524018 C10.9140053,21.772948 10.6712564,22.0297586 10.44923,22.3287542 L9.53596123,23.5639612 L13.2534238,26.342252 L14.2488423,24.9967718 C14.4545868,24.7207189 14.6107454,24.4232035 14.7173181,24.1108863 C14.8246308,23.7978291 14.8712564,23.4855119 14.859415,23.1746749 C14.8460934,22.8660581 14.7683841,22.5670626 14.624067,22.2813885 C14.4790097,21.9957145 14.2562432,21.7418643 13.9542872,21.5168775 L13.9542872,21.5168775 Z M9.08968811,31.6538643 L8.25264846,31.2194326 L9.17331806,29.4269392 L8.33627841,28.9925075 L7.41486872,30.785741 L6.64739736,30.3875736 L7.62357357,28.4885075 L6.78653392,28.0548159 L5.34188194,30.8641903 L9.45899207,32.9993445 L10.9561903,30.0863577 L10.1198907,29.6497057 L9.08968811,31.6538643 Z M4.68172335,44.5313974 L3.75883348,44.3382344 L4.17032247,42.3607189 L3.2474326,42.1690361 L2.8366837,44.142111 L1.990763,43.9644899 L2.42667489,41.8744811 L1.50452511,41.6813181 L0.85990837,44.7748863 L5.39442819,45.7281198 L6.06346784,42.5183577 L5.14131806,42.3222344 L4.68172335,44.5313974 Z M4.67136211,53.2696176 L2.67090396,53.1867278 L2.75231366,51.1958907 L4.75351189,51.2787806 L4.79569692,50.2530185 L0.165705727,50.0613357 L0.124260793,51.0878379 L1.85014626,51.1574062 L1.76799648,53.1482432 L0.0421110132,53.0764546 L-7.40088106e-05,54.1022167 L4.62917709,54.2931595 L4.67136211,53.2696176 Z M4.95925639,59.7128247 L1.25363524,60.1539172 L1.09969692,58.8358203 L0.201970044,58.9409128 L0.63344141,62.5991683 L1.53042819,62.4911154 L1.37500969,61.1730185 L5.07841057,60.731926 L4.95925639,59.7128247 Z M83.7682784,31.5132476 C83.7682784,29.8865339 82.958622,25.007133 75.8345339,25.007133 C65.7989392,25.007133 60.3881551,33.9052123 57.5958026,44.7267806 L24.2407718,44.7267806 L22.7591154,48.6744106 L36.5728599,48.6744106 C34.4303048,56.4053709 30.1355736,75.3353445 28.6753797,80.8068159 L38.2565604,80.8068159 C39.7567189,75.0400493 44.2860581,55.2064282 46.0445075,48.6744106 L56.7298996,48.6744106 C55.1113269,55.2626749 51.710622,70.9592035 49.6058115,80.5566661 C47.1775824,91.6180229 46.0445075,95.928296 42.1583048,95.928296 C41.2672388,95.928296 40.8638907,95.4398379 40.8638907,94.9521198 C40.8638907,94.5450714 42.1583048,93.3254062 42.1583048,91.6180229 C42.1583048,88.6894943 39.1639084,87.6326485 38.110763,87.6326485 C36.8156088,87.6326485 33.9825515,89.0965427 33.9825515,91.6180229 C33.9825515,96.4974238 37.6252652,98.4497762 41.8348863,98.4497762 C55.8395736,98.4497762 59.4008775,81.2886132 66.2015471,48.6744106 L73.4869744,48.6744106 L74.2130009,45.2692652 L74.2803489,45.2581639 L74.4564899,44.7267806 L66.9016705,44.7267806 L68.224948,39.4839965 C69.0346044,36.2305692 71.3821639,27.3650537 75.591785,27.3650537 C76.238622,27.3650537 76.9676088,27.6092828 76.9676088,28.5040493 C76.9676088,28.9917674 75.6731947,30.2121727 75.6731947,31.7574767 C75.6731947,34.1161374 77.4538467,35.8242608 79.5586573,35.8242608 C81.5013885,35.8242608 83.7682784,34.6038555 83.7682784,31.5132476 L83.7682784,31.5132476 Z"/>
</svg>
